<mxfile host="app.diagrams.net" modified="2024-02-29T09:05:05.920Z" agent="Mozilla/5.0 (Windows NT 10.0; Win64; x64) AppleWebKit/537.36 (KHTML, like Gecko) Chrome/122.0.0.0 Safari/537.36" etag="qTGEd5Ex5eWk7ChqG9yI" version="23.1.8" type="device">
  <diagram name="PÃ¡gina-1" id="ZxIL1M5VenDDfFNC-x8Q">
    <mxGraphModel dx="619" dy="343" grid="1" gridSize="10" guides="1" tooltips="1" connect="1" arrows="1" fold="1" page="1" pageScale="1" pageWidth="827" pageHeight="1169" math="0" shadow="0">
      <root>
        <mxCell id="0" />
        <mxCell id="1" parent="0" />
        <mxCell id="obM27gpyTdLw9rrVLr5P-3" value="" style="ellipse;whiteSpace=wrap;html=1;aspect=fixed;gradientColor=none;strokeColor=#6b6b6b;" vertex="1" parent="1">
          <mxGeometry x="120" y="90" width="430" height="430" as="geometry" />
        </mxCell>
        <mxCell id="obM27gpyTdLw9rrVLr5P-4" value="" style="ellipse;whiteSpace=wrap;html=1;aspect=fixed;gradientColor=none;strokeColor=#6b6b6b;" vertex="1" parent="1">
          <mxGeometry x="170" y="140" width="330" height="330" as="geometry" />
        </mxCell>
        <mxCell id="obM27gpyTdLw9rrVLr5P-5" value="" style="ellipse;whiteSpace=wrap;html=1;aspect=fixed;gradientColor=none;strokeColor=#6b6b6b;" vertex="1" parent="1">
          <mxGeometry x="220" y="190" width="230" height="230" as="geometry" />
        </mxCell>
        <mxCell id="obM27gpyTdLw9rrVLr5P-6" value="" style="ellipse;whiteSpace=wrap;html=1;aspect=fixed;gradientColor=none;strokeColor=#6b6b6b;" vertex="1" parent="1">
          <mxGeometry x="270" y="240" width="130" height="130" as="geometry" />
        </mxCell>
        <mxCell id="obM27gpyTdLw9rrVLr5P-19" value="" style="endArrow=none;html=1;rounded=0;entryX=0.936;entryY=0.253;entryDx=0;entryDy=0;entryPerimeter=0;exitX=0.5;exitY=1;exitDx=0;exitDy=0;" edge="1" parent="1" source="obM27gpyTdLw9rrVLr5P-65" target="obM27gpyTdLw9rrVLr5P-3">
          <mxGeometry width="50" height="50" relative="1" as="geometry">
            <mxPoint x="150" y="410" as="sourcePoint" />
            <mxPoint x="520" y="200" as="targetPoint" />
          </mxGeometry>
        </mxCell>
        <mxCell id="obM27gpyTdLw9rrVLr5P-20" value="" style="endArrow=none;html=1;rounded=0;entryX=0.5;entryY=0;entryDx=0;entryDy=0;exitX=0.5;exitY=1;exitDx=0;exitDy=0;" edge="1" parent="1" source="obM27gpyTdLw9rrVLr5P-50" target="obM27gpyTdLw9rrVLr5P-3">
          <mxGeometry width="50" height="50" relative="1" as="geometry">
            <mxPoint x="335" y="305" as="sourcePoint" />
            <mxPoint x="530" y="210" as="targetPoint" />
          </mxGeometry>
        </mxCell>
        <mxCell id="obM27gpyTdLw9rrVLr5P-21" value="" style="endArrow=none;html=1;rounded=0;entryX=0.935;entryY=0.748;entryDx=0;entryDy=0;exitX=0.066;exitY=0.254;exitDx=0;exitDy=0;exitPerimeter=0;entryPerimeter=0;" edge="1" parent="1" source="obM27gpyTdLw9rrVLr5P-55" target="obM27gpyTdLw9rrVLr5P-3">
          <mxGeometry width="50" height="50" relative="1" as="geometry">
            <mxPoint x="110" y="186.80001395089286" as="sourcePoint" />
            <mxPoint x="520" y="410" as="targetPoint" />
          </mxGeometry>
        </mxCell>
        <mxCell id="obM27gpyTdLw9rrVLr5P-22" value="&lt;font style=&quot;font-size: 10px;&quot;&gt;4&lt;/font&gt;" style="text;html=1;align=center;verticalAlign=middle;whiteSpace=wrap;rounded=0;" vertex="1" parent="1">
          <mxGeometry x="320" y="90" width="10" height="10" as="geometry" />
        </mxCell>
        <mxCell id="obM27gpyTdLw9rrVLr5P-23" value="&lt;font style=&quot;font-size: 10px;&quot;&gt;3&lt;/font&gt;" style="text;html=1;align=center;verticalAlign=middle;whiteSpace=wrap;rounded=0;" vertex="1" parent="1">
          <mxGeometry x="320" y="140" width="10" height="10" as="geometry" />
        </mxCell>
        <mxCell id="obM27gpyTdLw9rrVLr5P-24" value="&lt;font style=&quot;font-size: 10px;&quot;&gt;2&lt;/font&gt;" style="text;html=1;align=center;verticalAlign=middle;whiteSpace=wrap;rounded=0;" vertex="1" parent="1">
          <mxGeometry x="320" y="190" width="10" height="10" as="geometry" />
        </mxCell>
        <mxCell id="obM27gpyTdLw9rrVLr5P-25" value="&lt;font style=&quot;font-size: 10px;&quot;&gt;1&lt;/font&gt;" style="text;html=1;align=center;verticalAlign=middle;whiteSpace=wrap;rounded=0;" vertex="1" parent="1">
          <mxGeometry x="320" y="240" width="10" height="10" as="geometry" />
        </mxCell>
        <mxCell id="obM27gpyTdLw9rrVLr5P-26" value="&lt;font style=&quot;font-size: 10px;&quot;&gt;0&lt;/font&gt;" style="text;html=1;align=center;verticalAlign=middle;whiteSpace=wrap;rounded=0;" vertex="1" parent="1">
          <mxGeometry x="320" y="290" width="10" height="10" as="geometry" />
        </mxCell>
        <mxCell id="obM27gpyTdLw9rrVLr5P-28" value="" style="ellipse;whiteSpace=wrap;html=1;aspect=fixed;fillColor=#0050ef;strokeColor=#001DBC;fontColor=#ffffff;" vertex="1" parent="1">
          <mxGeometry x="275" y="35" width="10" height="10" as="geometry" />
        </mxCell>
        <mxCell id="obM27gpyTdLw9rrVLr5P-29" value="&lt;font style=&quot;font-size: 10px;&quot;&gt;PTS&lt;/font&gt;" style="text;html=1;align=center;verticalAlign=middle;whiteSpace=wrap;rounded=0;" vertex="1" parent="1">
          <mxGeometry x="285" y="30" width="35" height="20" as="geometry" />
        </mxCell>
        <mxCell id="obM27gpyTdLw9rrVLr5P-34" value="&lt;span style=&quot;font-size: 10px;&quot;&gt;SimTS&lt;/span&gt;" style="text;html=1;align=center;verticalAlign=middle;whiteSpace=wrap;rounded=0;" vertex="1" parent="1">
          <mxGeometry x="355" y="30" width="45" height="20" as="geometry" />
        </mxCell>
        <mxCell id="obM27gpyTdLw9rrVLr5P-35" value="" style="rhombus;whiteSpace=wrap;html=1;fillColor=#60a917;fontColor=#ffffff;strokeColor=#2D7600;" vertex="1" parent="1">
          <mxGeometry x="345" y="35" width="10" height="10" as="geometry" />
        </mxCell>
        <mxCell id="obM27gpyTdLw9rrVLr5P-44" value="Optimality" style="text;html=1;align=center;verticalAlign=middle;whiteSpace=wrap;rounded=0;" vertex="1" parent="1">
          <mxGeometry x="305" y="70" width="60" height="20" as="geometry" />
        </mxCell>
        <mxCell id="obM27gpyTdLw9rrVLr5P-45" value="Reliability" style="text;html=1;align=center;verticalAlign=middle;whiteSpace=wrap;rounded=0;" vertex="1" parent="1">
          <mxGeometry x="80" y="185" width="60" height="20" as="geometry" />
        </mxCell>
        <mxCell id="obM27gpyTdLw9rrVLr5P-46" value="Scalability" style="text;html=1;align=center;verticalAlign=middle;whiteSpace=wrap;rounded=0;" vertex="1" parent="1">
          <mxGeometry x="90" y="400" width="60" height="20" as="geometry" />
        </mxCell>
        <mxCell id="obM27gpyTdLw9rrVLr5P-47" value="Uncertainty" style="text;html=1;align=center;verticalAlign=middle;whiteSpace=wrap;rounded=0;" vertex="1" parent="1">
          <mxGeometry x="305" y="520" width="60" height="20" as="geometry" />
        </mxCell>
        <mxCell id="obM27gpyTdLw9rrVLr5P-48" value="Flexibility" style="text;html=1;align=center;verticalAlign=middle;whiteSpace=wrap;rounded=0;" vertex="1" parent="1">
          <mxGeometry x="520" y="400" width="60" height="20" as="geometry" />
        </mxCell>
        <mxCell id="obM27gpyTdLw9rrVLr5P-49" value="Speed" style="text;html=1;align=center;verticalAlign=middle;whiteSpace=wrap;rounded=0;" vertex="1" parent="1">
          <mxGeometry x="510" y="185" width="60" height="20" as="geometry" />
        </mxCell>
        <mxCell id="obM27gpyTdLw9rrVLr5P-51" value="" style="endArrow=none;html=1;rounded=0;entryX=0.5;entryY=0;entryDx=0;entryDy=0;exitX=0.5;exitY=1;exitDx=0;exitDy=0;" edge="1" parent="1" source="obM27gpyTdLw9rrVLr5P-63" target="obM27gpyTdLw9rrVLr5P-50">
          <mxGeometry width="50" height="50" relative="1" as="geometry">
            <mxPoint x="335" y="520" as="sourcePoint" />
            <mxPoint x="335" y="90" as="targetPoint" />
          </mxGeometry>
        </mxCell>
        <mxCell id="obM27gpyTdLw9rrVLr5P-50" value="" style="ellipse;whiteSpace=wrap;html=1;aspect=fixed;fillColor=#0050ef;strokeColor=#001DBC;fontColor=#ffffff;" vertex="1" parent="1">
          <mxGeometry x="330" y="130" width="10" height="10" as="geometry" />
        </mxCell>
        <mxCell id="obM27gpyTdLw9rrVLr5P-52" value="" style="ellipse;whiteSpace=wrap;html=1;aspect=fixed;fillColor=#0050ef;strokeColor=#001DBC;fontColor=#ffffff;gradientColor=none;" vertex="1" parent="1">
          <mxGeometry x="470" y="220" width="10" height="10" as="geometry" />
        </mxCell>
        <mxCell id="obM27gpyTdLw9rrVLr5P-56" value="" style="endArrow=none;html=1;rounded=0;entryX=0.935;entryY=0.748;entryDx=0;entryDy=0;exitX=0;exitY=0;exitDx=0;exitDy=0;entryPerimeter=0;" edge="1" parent="1" source="obM27gpyTdLw9rrVLr5P-61" target="obM27gpyTdLw9rrVLr5P-55">
          <mxGeometry width="50" height="50" relative="1" as="geometry">
            <mxPoint x="148" y="199" as="sourcePoint" />
            <mxPoint x="522" y="412" as="targetPoint" />
          </mxGeometry>
        </mxCell>
        <mxCell id="obM27gpyTdLw9rrVLr5P-55" value="" style="ellipse;whiteSpace=wrap;html=1;aspect=fixed;fillColor=#0050ef;strokeColor=#001DBC;fontColor=#ffffff;gradientColor=none;" vertex="1" parent="1">
          <mxGeometry x="430" y="360" width="10" height="10" as="geometry" />
        </mxCell>
        <mxCell id="obM27gpyTdLw9rrVLr5P-58" value="" style="endArrow=none;html=1;rounded=0;entryX=0.5;entryY=0;entryDx=0;entryDy=0;exitX=0.5;exitY=1;exitDx=0;exitDy=0;" edge="1" parent="1" source="obM27gpyTdLw9rrVLr5P-3" target="obM27gpyTdLw9rrVLr5P-57">
          <mxGeometry width="50" height="50" relative="1" as="geometry">
            <mxPoint x="335" y="520" as="sourcePoint" />
            <mxPoint x="335" y="130" as="targetPoint" />
          </mxGeometry>
        </mxCell>
        <mxCell id="obM27gpyTdLw9rrVLr5P-57" value="" style="ellipse;whiteSpace=wrap;html=1;aspect=fixed;fillColor=#0050ef;strokeColor=#001DBC;fontColor=#ffffff;gradientColor=none;" vertex="1" parent="1">
          <mxGeometry x="330" y="410" width="10" height="10" as="geometry" />
        </mxCell>
        <mxCell id="obM27gpyTdLw9rrVLr5P-60" value="" style="endArrow=none;html=1;rounded=0;entryX=0.936;entryY=0.253;entryDx=0;entryDy=0;entryPerimeter=0;exitX=0.064;exitY=0.747;exitDx=0;exitDy=0;exitPerimeter=0;" edge="1" parent="1" source="obM27gpyTdLw9rrVLr5P-3" target="obM27gpyTdLw9rrVLr5P-59">
          <mxGeometry width="50" height="50" relative="1" as="geometry">
            <mxPoint x="148" y="411" as="sourcePoint" />
            <mxPoint x="522" y="199" as="targetPoint" />
          </mxGeometry>
        </mxCell>
        <mxCell id="obM27gpyTdLw9rrVLr5P-59" value="" style="ellipse;whiteSpace=wrap;html=1;aspect=fixed;fillColor=#0050ef;strokeColor=#001DBC;fontColor=#ffffff;gradientColor=none;" vertex="1" parent="1">
          <mxGeometry x="190" y="380" width="10" height="10" as="geometry" />
        </mxCell>
        <mxCell id="obM27gpyTdLw9rrVLr5P-62" value="" style="endArrow=none;html=1;rounded=0;entryX=0.935;entryY=0.748;entryDx=0;entryDy=0;exitX=0.066;exitY=0.254;exitDx=0;exitDy=0;exitPerimeter=0;entryPerimeter=0;" edge="1" parent="1" source="obM27gpyTdLw9rrVLr5P-3" target="obM27gpyTdLw9rrVLr5P-61">
          <mxGeometry width="50" height="50" relative="1" as="geometry">
            <mxPoint x="148" y="199" as="sourcePoint" />
            <mxPoint x="439" y="367" as="targetPoint" />
          </mxGeometry>
        </mxCell>
        <mxCell id="obM27gpyTdLw9rrVLr5P-61" value="" style="ellipse;whiteSpace=wrap;html=1;aspect=fixed;fillColor=#0050ef;strokeColor=#001DBC;fontColor=#ffffff;gradientColor=none;" vertex="1" parent="1">
          <mxGeometry x="275" y="270" width="10" height="10" as="geometry" />
        </mxCell>
        <mxCell id="obM27gpyTdLw9rrVLr5P-64" value="" style="endArrow=none;html=1;rounded=0;entryX=0.5;entryY=0;entryDx=0;entryDy=0;exitX=0.5;exitY=1;exitDx=0;exitDy=0;" edge="1" parent="1" source="obM27gpyTdLw9rrVLr5P-57" target="obM27gpyTdLw9rrVLr5P-63">
          <mxGeometry width="50" height="50" relative="1" as="geometry">
            <mxPoint x="335" y="420" as="sourcePoint" />
            <mxPoint x="335" y="130" as="targetPoint" />
          </mxGeometry>
        </mxCell>
        <mxCell id="obM27gpyTdLw9rrVLr5P-63" value="" style="rhombus;whiteSpace=wrap;html=1;fillColor=#60a917;fontColor=#ffffff;strokeColor=#2D7600;" vertex="1" parent="1">
          <mxGeometry x="330" y="185" width="10" height="10" as="geometry" />
        </mxCell>
        <mxCell id="obM27gpyTdLw9rrVLr5P-66" value="" style="endArrow=none;html=1;rounded=0;exitX=0.064;exitY=0.747;exitDx=0;exitDy=0;exitPerimeter=0;entryX=0.5;entryY=1;entryDx=0;entryDy=0;" edge="1" parent="1" source="obM27gpyTdLw9rrVLr5P-59" target="obM27gpyTdLw9rrVLr5P-65">
          <mxGeometry width="50" height="50" relative="1" as="geometry">
            <mxPoint x="191" y="387" as="sourcePoint" />
            <mxPoint x="450" y="240" as="targetPoint" />
          </mxGeometry>
        </mxCell>
        <mxCell id="obM27gpyTdLw9rrVLr5P-65" value="" style="rhombus;whiteSpace=wrap;html=1;fillColor=#60a917;fontColor=#ffffff;strokeColor=#2D7600;" vertex="1" parent="1">
          <mxGeometry x="430" y="240" width="10" height="10" as="geometry" />
        </mxCell>
        <mxCell id="obM27gpyTdLw9rrVLr5P-69" value="" style="rhombus;whiteSpace=wrap;html=1;fillColor=#60a917;fontColor=#ffffff;strokeColor=#2D7600;" vertex="1" parent="1">
          <mxGeometry x="230" y="360" width="10" height="10" as="geometry" />
        </mxCell>
        <mxCell id="obM27gpyTdLw9rrVLr5P-73" value="" style="rhombus;whiteSpace=wrap;html=1;fillColor=#60a917;fontColor=#ffffff;strokeColor=#2D7600;" vertex="1" parent="1">
          <mxGeometry x="470" y="380" width="10" height="10" as="geometry" />
        </mxCell>
        <mxCell id="obM27gpyTdLw9rrVLr5P-76" value="" style="rhombus;whiteSpace=wrap;html=1;fillColor=#60a917;fontColor=#ffffff;strokeColor=#2D7600;" vertex="1" parent="1">
          <mxGeometry x="330" y="510" width="10" height="10" as="geometry" />
        </mxCell>
        <mxCell id="obM27gpyTdLw9rrVLr5P-77" value="" style="rhombus;whiteSpace=wrap;html=1;fillColor=#60a917;fontColor=#ffffff;strokeColor=#2D7600;" vertex="1" parent="1">
          <mxGeometry x="140" y="195" width="10" height="10" as="geometry" />
        </mxCell>
        <mxCell id="obM27gpyTdLw9rrVLr5P-82" value="" style="endArrow=none;html=1;rounded=0;fillColor=#0050ef;strokeColor=#001DBC;exitX=1;exitY=1;exitDx=0;exitDy=0;entryX=0;entryY=0;entryDx=0;entryDy=0;" edge="1" parent="1" source="obM27gpyTdLw9rrVLr5P-50" target="obM27gpyTdLw9rrVLr5P-52">
          <mxGeometry width="50" height="50" relative="1" as="geometry">
            <mxPoint x="400" y="175" as="sourcePoint" />
            <mxPoint x="470" y="140" as="targetPoint" />
          </mxGeometry>
        </mxCell>
        <mxCell id="obM27gpyTdLw9rrVLr5P-83" value="" style="endArrow=none;html=1;rounded=0;fillColor=#0050ef;strokeColor=#001DBC;exitX=0.5;exitY=1;exitDx=0;exitDy=0;entryX=0.5;entryY=0;entryDx=0;entryDy=0;" edge="1" parent="1" source="obM27gpyTdLw9rrVLr5P-52" target="obM27gpyTdLw9rrVLr5P-55">
          <mxGeometry width="50" height="50" relative="1" as="geometry">
            <mxPoint x="484" y="230" as="sourcePoint" />
            <mxPoint x="616" y="312" as="targetPoint" />
          </mxGeometry>
        </mxCell>
        <mxCell id="obM27gpyTdLw9rrVLr5P-84" value="" style="endArrow=none;html=1;rounded=0;fillColor=#0050ef;strokeColor=#001DBC;exitX=0;exitY=1;exitDx=0;exitDy=0;entryX=1;entryY=0.5;entryDx=0;entryDy=0;" edge="1" parent="1" source="obM27gpyTdLw9rrVLr5P-55" target="obM27gpyTdLw9rrVLr5P-57">
          <mxGeometry width="50" height="50" relative="1" as="geometry">
            <mxPoint x="440" y="430" as="sourcePoint" />
            <mxPoint x="400" y="560" as="targetPoint" />
          </mxGeometry>
        </mxCell>
        <mxCell id="obM27gpyTdLw9rrVLr5P-85" value="" style="endArrow=none;html=1;rounded=0;fillColor=#0050ef;strokeColor=#001DBC;exitX=0;exitY=0.5;exitDx=0;exitDy=0;entryX=1;entryY=0.5;entryDx=0;entryDy=0;" edge="1" parent="1" source="obM27gpyTdLw9rrVLr5P-57" target="obM27gpyTdLw9rrVLr5P-59">
          <mxGeometry width="50" height="50" relative="1" as="geometry">
            <mxPoint x="241" y="460" as="sourcePoint" />
            <mxPoint x="150" y="506" as="targetPoint" />
          </mxGeometry>
        </mxCell>
        <mxCell id="obM27gpyTdLw9rrVLr5P-86" value="" style="endArrow=none;html=1;rounded=0;fillColor=#0050ef;strokeColor=#001DBC;exitX=0;exitY=1;exitDx=0;exitDy=0;entryX=0.5;entryY=0;entryDx=0;entryDy=0;" edge="1" parent="1" source="obM27gpyTdLw9rrVLr5P-61" target="obM27gpyTdLw9rrVLr5P-59">
          <mxGeometry width="50" height="50" relative="1" as="geometry">
            <mxPoint x="260" y="320" as="sourcePoint" />
            <mxPoint x="130" y="290" as="targetPoint" />
          </mxGeometry>
        </mxCell>
        <mxCell id="obM27gpyTdLw9rrVLr5P-87" value="" style="endArrow=none;html=1;rounded=0;fillColor=#0050ef;strokeColor=#001DBC;exitX=0;exitY=1;exitDx=0;exitDy=0;entryX=0.5;entryY=0;entryDx=0;entryDy=0;" edge="1" parent="1" source="obM27gpyTdLw9rrVLr5P-50" target="obM27gpyTdLw9rrVLr5P-61">
          <mxGeometry width="50" height="50" relative="1" as="geometry">
            <mxPoint x="301" y="190" as="sourcePoint" />
            <mxPoint x="220" y="291" as="targetPoint" />
          </mxGeometry>
        </mxCell>
        <mxCell id="obM27gpyTdLw9rrVLr5P-90" value="" style="endArrow=none;html=1;rounded=0;fillColor=#60a917;strokeColor=#2D7600;exitX=1;exitY=0.5;exitDx=0;exitDy=0;entryX=0;entryY=0.5;entryDx=0;entryDy=0;" edge="1" parent="1" source="obM27gpyTdLw9rrVLr5P-77" target="obM27gpyTdLw9rrVLr5P-63">
          <mxGeometry width="50" height="50" relative="1" as="geometry">
            <mxPoint x="200" y="190" as="sourcePoint" />
            <mxPoint x="250" y="140" as="targetPoint" />
          </mxGeometry>
        </mxCell>
        <mxCell id="obM27gpyTdLw9rrVLr5P-91" value="" style="endArrow=none;html=1;rounded=0;fillColor=#60a917;strokeColor=#2D7600;exitX=1;exitY=0.5;exitDx=0;exitDy=0;entryX=0;entryY=0;entryDx=0;entryDy=0;" edge="1" parent="1" source="obM27gpyTdLw9rrVLr5P-63" target="obM27gpyTdLw9rrVLr5P-65">
          <mxGeometry width="50" height="50" relative="1" as="geometry">
            <mxPoint x="160" y="210" as="sourcePoint" />
            <mxPoint x="340" y="200" as="targetPoint" />
          </mxGeometry>
        </mxCell>
        <mxCell id="obM27gpyTdLw9rrVLr5P-92" value="" style="endArrow=none;html=1;rounded=0;fillColor=#60a917;strokeColor=#2D7600;exitX=1;exitY=1;exitDx=0;exitDy=0;entryX=0.5;entryY=0;entryDx=0;entryDy=0;" edge="1" parent="1" source="obM27gpyTdLw9rrVLr5P-65" target="obM27gpyTdLw9rrVLr5P-73">
          <mxGeometry width="50" height="50" relative="1" as="geometry">
            <mxPoint x="457" y="270" as="sourcePoint" />
            <mxPoint x="550" y="323" as="targetPoint" />
          </mxGeometry>
        </mxCell>
        <mxCell id="obM27gpyTdLw9rrVLr5P-93" value="" style="endArrow=none;html=1;rounded=0;fillColor=#60a917;strokeColor=#2D7600;exitX=0.5;exitY=1;exitDx=0;exitDy=0;entryX=1;entryY=0.5;entryDx=0;entryDy=0;" edge="1" parent="1" source="obM27gpyTdLw9rrVLr5P-73" target="obM27gpyTdLw9rrVLr5P-76">
          <mxGeometry width="50" height="50" relative="1" as="geometry">
            <mxPoint x="413" y="430" as="sourcePoint" />
            <mxPoint x="450" y="562" as="targetPoint" />
          </mxGeometry>
        </mxCell>
        <mxCell id="obM27gpyTdLw9rrVLr5P-94" value="" style="endArrow=none;html=1;rounded=0;fillColor=#60a917;strokeColor=#2D7600;exitX=0;exitY=0.5;exitDx=0;exitDy=0;entryX=0.5;entryY=1;entryDx=0;entryDy=0;" edge="1" parent="1" source="obM27gpyTdLw9rrVLr5P-76" target="obM27gpyTdLw9rrVLr5P-69">
          <mxGeometry width="50" height="50" relative="1" as="geometry">
            <mxPoint x="285" y="410" as="sourcePoint" />
            <mxPoint x="150" y="535" as="targetPoint" />
          </mxGeometry>
        </mxCell>
        <mxCell id="obM27gpyTdLw9rrVLr5P-95" value="" style="endArrow=none;html=1;rounded=0;fillColor=#60a917;strokeColor=#2D7600;exitX=0.5;exitY=0;exitDx=0;exitDy=0;entryX=0.5;entryY=1;entryDx=0;entryDy=0;" edge="1" parent="1" source="obM27gpyTdLw9rrVLr5P-69" target="obM27gpyTdLw9rrVLr5P-77">
          <mxGeometry width="50" height="50" relative="1" as="geometry">
            <mxPoint x="175" y="350" as="sourcePoint" />
            <mxPoint x="80" y="205" as="targetPoint" />
          </mxGeometry>
        </mxCell>
      </root>
    </mxGraphModel>
  </diagram>
</mxfile>
